<svg id="visual" viewBox="0 0 900 600" width="900" height="600" xmlns="http://www.w3.org/2000/svg" xmlns:xlink="http://www.w3.org/1999/xlink" version="1.1"><rect x="0" y="0" width="900" height="600" fill="#FFFFFF"></rect><path d="M767 600L755.3 587.5C743.7 575 720.3 550 720.2 525C720 500 743 475 754.8 450C766.7 425 767.3 400 767.2 375C767 350 766 325 751.8 300C737.7 275 710.3 250 702.8 225C695.3 200 707.7 175 719.5 150C731.3 125 742.7 100 742.5 75C742.3 50 730.7 25 724.8 12.5L719 0L900 0L900 12.5C900 25 900 50 900 75C900 100 900 125 900 150C900 175 900 200 900 225C900 250 900 275 900 300C900 325 900 350 900 375C900 400 900 425 900 450C900 475 900 500 900 525C900 550 900 575 900 587.5L900 600Z" fill="#191918"></path><path d="M785 600L778 587.5C771 575 757 550 757.8 525C758.7 500 774.3 475 776.8 450C779.3 425 768.7 400 760.8 375C753 350 748 325 748.3 300C748.7 275 754.3 250 759.8 225C765.3 200 770.7 175 768.3 150C766 125 756 100 750.8 75C745.7 50 745.3 25 745.2 12.5L745 0L900 0L900 12.5C900 25 900 50 900 75C900 100 900 125 900 150C900 175 900 200 900 225C900 250 900 275 900 300C900 325 900 350 900 375C900 400 900 425 900 450C900 475 900 500 900 525C900 550 900 575 900 587.5L900 600Z" fill="#4a4421"></path><path d="M774 600L782.2 587.5C790.3 575 806.7 550 808.5 525C810.3 500 797.7 475 791 450C784.3 425 783.7 400 784.2 375C784.7 350 786.3 325 795.7 300C805 275 822 250 824.5 225C827 200 815 175 809.8 150C804.7 125 806.3 100 804.5 75C802.7 50 797.3 25 794.7 12.5L792 0L900 0L900 12.5C900 25 900 50 900 75C900 100 900 125 900 150C900 175 900 200 900 225C900 250 900 275 900 300C900 325 900 350 900 375C900 400 900 425 900 450C900 475 900 500 900 525C900 550 900 575 900 587.5L900 600Z" fill="#8b6f27"></path><path d="M858 600L858.7 587.5C859.3 575 860.7 550 863 525C865.3 500 868.7 475 863.3 450C858 425 844 400 841.7 375C839.3 350 848.7 325 849 300C849.3 275 840.7 250 836.7 225C832.7 200 833.3 175 837.5 150C841.7 125 849.3 100 850 75C850.7 50 844.3 25 841.2 12.5L838 0L900 0L900 12.5C900 25 900 50 900 75C900 100 900 125 900 150C900 175 900 200 900 225C900 250 900 275 900 300C900 325 900 350 900 375C900 400 900 425 900 450C900 475 900 500 900 525C900 550 900 575 900 587.5L900 600Z" fill="#dd9830"></path></svg>